<svg version="1.2" width="136" height="136" viewBox="0 0 136 136" xmlns="http://www.w3.org/2000/svg" xmlns:xlink="http://www.w3.org/1999/xlink"><defs><style/></defs><g><g id="QcmErRM7" transform="matrix(1,0,0,1,-0.8463478088378906,0)"><defs><!----><!----><!----></defs><!----><!----><g><!----><g transform=""><!----><g id="QcmErRM7_origin" transform="skewX(0) skewY(0)"><g filter=""><g><g id="eGat9rgZ" transform="matrix(1,0,0,1,0.8463478088378906,0)"><defs><!----><!----><!----></defs><!----><!----><g><!----><g transform=""><!----><g id="eGat9rgZ_origin" transform="skewX(0) skewY(0)"><path id="shapepath_eGat9rgZ" d="M0,135.53V0H135.53V135.53Z" filter="" style="fill: rgba(255, 255, 255, 0); stroke: none;"/></g><!----></g><!----></g></g></g><g><g id="luHV4pV3" transform="matrix(1,0,0,1,0,0)"><defs><!----><!----><!----></defs><defs><linearGradient x1="0" y1="0" x2="1" y2="1" id="luHV4pV3_fill"><stop offset="0" stop-color="#B3E7E4FF"/><stop offset="1" stop-color="#81d7d2ff"/></linearGradient></defs><!----><g><!----><g transform=""><!----><g id="luHV4pV3_origin" transform="skewX(0) skewY(0)"><path id="shapepath_luHV4pV3" d="M0,67.76C0,30.34,30.34,0,67.76,0C105.19,0,135.53,30.34,135.53,67.76C135.53,105.19,105.19,135.53,67.76,135.53C30.34,135.53,0,105.19,0,67.76Z" filter="" style="fill: url(&quot;#luHV4pV3_fill&quot;); stroke: none;"/></g><!----></g><!----></g></g></g><g><g id="k0LvPGQH" transform="matrix(1,0,0,1,31.98262838239583,39.70431662922333)"><defs><!----><!----><!----></defs><!----><!----><g><!----><g transform=""><!----><g id="k0LvPGQH_origin" transform="skewX(0) skewY(0)"><path id="shapepath_k0LvPGQH" d="M83.71,13.75C84.01,12.85,84.01,12.18,84.01,11.29C84.01,4.96,77.39,0,69.01,0C63.3,0,58.52,2.25,55.82,5.65C54.02,4.96,51.9,4.51,49.51,4.51C44.42,4.51,39.91,6.76,37.51,9.93C41.43,10.83,44.7,12.64,47.39,14.89C49.82,13.98,52.5,13.52,55.2,13.52C65.11,13.52,73.51,19.18,74.72,26.62C77.39,27.74,79.78,29.55,81.31,31.57C87.59,31.35,92.71,27.29,92.71,22.55C93,18.26,89.08,14.65,83.71,13.75ZM72.02,27.98C72.02,21.21,64.49,15.78,55.53,15.78C52.23,15.78,49.51,16.46,46.82,17.59C42.89,13.75,36.91,11.29,29.99,11.29C18.29,11.29,9.02,18.28,9.02,27.08C9.02,27.29,9.02,27.74,9.02,27.98C3.61,29.77,0,33.61,0,38.35C0,44.67,6.61,49.63,14.99,49.63H65.99C74.37,49.63,80.99,44.67,80.99,38.35C81,33.61,77.39,29.77,72.02,27.98Z" filter="" style="fill: rgb(255, 255, 255); stroke: rgb(31, 31, 74); stroke-width: 0.59px;"/></g><!----></g><!----></g></g></g><g><g id="EqMuToTQ" transform="matrix(1,0,0,1,7.721760685490651,33.432642628346045)"><defs><!----><!----><!----></defs><!----><!----><g><!----><g transform=""><!----><g id="EqMuToTQ_origin" transform="skewX(0) skewY(0)"><path id="shapepath_EqMuToTQ" d="M25.8,16.36H23.79C23.16,14.53,21.14,13.2,18.72,13.2C17.89,13.2,17.09,13.37,16.41,13.64C15.93,11.13,13.29,9.22,10.11,9.22C6.6,9.22,3.71,11.56,3.71,14.44C3.71,15.12,3.88,15.76,4.17,16.36H3.88C1.75,16.36,0,17.78,0,19.54V20C0,21.63,1.62,22.96,3.61,22.96H25.9C28.05,22.96,29.83,21.52,29.83,19.74V19.66C29.83,17.83,28,16.36,25.8,16.36ZM32.63,4.51H31.38C30.97,3.36,29.69,2.52,28.15,2.52C27.64,2.52,27.15,2.61,26.69,2.81C26.41,1.23,24.73,0,22.72,0C20.49,0,18.68,1.48,18.68,3.3C18.68,3.72,18.78,4.13,18.97,4.51H18.78C17.43,4.51,16.34,5.41,16.34,6.52V6.81C16.34,7.85,17.37,8.68,18.63,8.68H32.7C34.05,8.68,35.17,7.77,35.17,6.65V6.59C35.17,5.46,34.04,4.51,32.63,4.51Z" filter="" style="fill: rgb(255, 255, 255); stroke: rgb(31, 31, 74); stroke-width: 0.5px;"/></g><!----></g><!----></g></g></g></g></g><!----></g><!----></g></g><g fill="#ffffff11" transform="translate(67.764, 67.764)"><text text-anchor="middle" style="font: 16.941px Arial;"> DRAWTIFY </text></g></g></svg>