<svg version="1.2" width="136" height="136" viewBox="0 0 136 136" xmlns="http://www.w3.org/2000/svg" xmlns:xlink="http://www.w3.org/1999/xlink"><defs><style/></defs><g><g id="wOS1Ticn" transform="matrix(1,0,0,1,0,0)" style=""><defs><!----><!----><!----></defs><!----><!----><g><!----><g transform=""><!----><g id="wOS1Ticn_origin" transform="skewX(0) skewY(0)"><g filter=""><g><g id="MpyAqGG0" transform="matrix(1,0,0,1,0,0)"><defs><!----><!----><!----></defs><!----><!----><g><!----><g transform=""><!----><g id="MpyAqGG0_origin" transform="skewX(0) skewY(0)"><g filter=""><g><g id="S33HkG37" transform="matrix(1,0,0,1,0,0)" style=""><defs><!----><!----><!----></defs><!----><!----><g><!----><g transform=""><!----><g id="S33HkG37_origin" transform="skewX(0) skewY(0)"><path id="shapepath_S33HkG37" d="M0,135.53V0H135.53V135.53Z" filter="" style="fill: rgba(255, 255, 255, 0); stroke: none;"/></g><!----></g><!----></g></g></g><g><g id="Uy5x7pM3" transform="matrix(1,0,0,1,0,0)" style=""><defs><!----><!----><!----></defs><!----><!----><g><!----><g transform=""><!----><g id="Uy5x7pM3_origin" transform="skewX(0) skewY(0)"><g filter=""><g><g id="a2yi2yun" transform="matrix(1,0,0,1,0,0)"><defs><!----><!----><!----></defs><defs><linearGradient x1="0" y1="0" x2="1" y2="1" id="a2yi2yun_fill"><stop offset="0" stop-color="#b3e7e4ff"/><stop offset="1" stop-color="#81d7d2ff"/></linearGradient></defs><!----><g><!----><g transform=""><!----><g id="a2yi2yun_origin" transform="skewX(0) skewY(0)"><path id="shapepath_a2yi2yun" d="M0,67.76C0,30.34,30.34,0,67.76,0C105.19,0,135.53,30.34,135.53,67.76C135.53,105.19,105.19,135.53,67.76,135.53C30.34,135.53,0,105.19,0,67.76Z" filter="" style="fill: url(&quot;#a2yi2yun_fill&quot;); stroke: none;"/></g><!----></g><!----></g></g></g><g><g id="hODyb7g4" transform="matrix(1,0,0,1,0,0)"><defs><!----><!----><!----></defs><!----><!----><g><!----><g transform=""><!----><g id="hODyb7g4_origin" transform="skewX(0) skewY(0)"><g filter=""><g><g id="mudLHYgm" transform="matrix(1,0,0,1,35.414000000000016,34.83000000000001)"><defs><!----><!----><!----></defs><!----><!----><g><!----><g transform=""><!----><g id="mudLHYgm_origin" transform="skewX(0) skewY(0)"><path id="shapepath_mudLHYgm" d="M0,32.61C0,14.6,14.6,0,32.61,0C50.63,0,65.23,14.6,65.23,32.61C65.23,50.63,50.63,65.23,32.61,65.23C14.6,65.23,0,50.63,0,32.61Z" filter="" style="fill: rgb(255, 216, 0); stroke: none;"/></g><!----></g><!----></g></g></g><g><g id="df86oNgg" transform="matrix(1,0,0,1,0,0)"><defs><!----><!----><!----></defs><!----><!----><g><!----><g transform=""><!----><g id="df86oNgg_origin" transform="skewX(0) skewY(0)"><g filter=""><g><g id="QU1r2YjO" transform="matrix(1,0,0,1,23.37309103933184,85.29199999999999)"><defs><!----><!----><!----></defs><!----><!----><g><!----><g transform=""><!----><g id="QU1r2YjO_origin" transform="skewX(0) skewY(0)"><path id="shapepath_QU1r2YjO" d="M0.52,7.15C0.02,7.43,-0.15,8.07,0.14,8.57C0.33,8.9,0.68,9.09,1.04,9.09C1.22,9.09,1.4,9.04,1.56,8.95L13.97,1.78C13.6,1.2,13.24,0.61,12.9,0Z" filter="" style="fill: rgb(255, 249, 154); stroke: none;"/></g><!----></g><!----></g></g></g><g><g id="UjllGMWi" transform="matrix(1,0,0,1,35.84714941957721,91.49)"><defs><!----><!----><!----></defs><!----><!----><g><!----><g transform=""><!----><g id="UjllGMWi_origin" transform="skewX(0) skewY(0)"><path id="shapepath_UjllGMWi" d="M0.34,4.07C-0.08,4.46,-0.12,5.11,0.27,5.54C0.48,5.76,0.76,5.88,1.04,5.88C1.29,5.88,1.54,5.79,1.74,5.61L6.24,1.53C5.75,1.03,5.28,0.52,4.82,0Z" filter="" style="fill: rgb(255, 249, 154); stroke: none;"/></g><!----></g><!----></g></g></g><g><g id="AC3FiTH4" transform="matrix(1,0,0,1,26.56568478462114,78.393)"><defs><!----><!----><!----></defs><!----><!----><g><!----><g transform=""><!----><g id="AC3FiTH4_origin" transform="skewX(0) skewY(0)"><path id="shapepath_AC3FiTH4" d="M0.72,1.94C0.17,2.12,-0.13,2.71,0.05,3.25C0.19,3.69,0.6,3.97,1.04,3.97C1.15,3.97,1.26,3.95,1.36,3.92L7.39,1.97C7.15,1.32,6.92,0.66,6.71,0Z" filter="" style="fill: rgb(255, 249, 154); stroke: none;"/></g><!----></g><!----></g></g></g><g><g id="B9WKahSi" transform="matrix(1,0,0,1,37.301448362415336,96.47199999999998)"><defs><!----><!----><!----></defs><!----><!----><g><!----><g transform=""><!----><g id="B9WKahSi_origin" transform="skewX(0) skewY(0)"><path id="shapepath_B9WKahSi" d="M0.2,11.72C-0.14,12.19,-0.04,12.84,0.43,13.18C0.61,13.31,0.83,13.38,1.04,13.38C1.36,13.38,1.68,13.23,1.88,12.95L10.41,1.22C9.83,0.83,9.27,0.42,8.72,0Z" filter="" style="fill: rgb(255, 249, 154); stroke: none;"/></g><!----></g><!----></g></g></g><g><g id="mheJ9AEH" transform="matrix(1,0,0,1,19.115684784621138,51.801821584740004)"><defs><!----><!----><!----></defs><!----><!----><g><!----><g transform=""><!----><g id="mheJ9AEH_origin" transform="skewX(0) skewY(0)"><path id="shapepath_mheJ9AEH" d="M1.36,0.05C0.82,-0.12,0.23,0.17,0.05,0.72C-0.13,1.27,0.17,1.85,0.72,2.03L13.71,6.25C13.89,5.58,14.09,4.91,14.31,4.26Z" filter="" style="fill: rgb(255, 249, 154); stroke: none;"/></g><!----></g><!----></g></g></g><g><g id="v9z5LtoV" transform="matrix(1,0,0,1,16.94140154199645,71.04800000000002)"><defs><!----><!----><!----></defs><!----><!----><g><!----><g transform=""><!----><g id="v9z5LtoV_origin" transform="skewX(0) skewY(0)"><path id="shapepath_v9z5LtoV" d="M0.93,1.46C0.36,1.52,-0.05,2.03,0.01,2.6C0.06,3.14,0.51,3.54,1.04,3.54C1.08,3.54,1.11,3.53,1.15,3.53L15.1,2.07C14.99,1.38,14.9,0.69,14.83,0Z" filter="" style="fill: rgb(255, 249, 154); stroke: none;"/></g><!----></g><!----></g></g></g><g><g id="H64fenr8" transform="matrix(1,0,0,1,49.984917711644485,100.398)"><defs><!----><!----><!----></defs><!----><!----><g><!----><g transform=""><!----><g id="H64fenr8_origin" transform="skewX(0) skewY(0)"><path id="shapepath_H64fenr8" d="M0.09,5.49C-0.14,6.01,0.1,6.63,0.62,6.86C0.76,6.92,0.9,6.95,1.04,6.95C1.44,6.95,1.82,6.71,1.99,6.33L4.41,0.83C3.77,0.57,3.13,0.3,2.5,0Z" filter="" style="fill: rgb(255, 249, 154); stroke: none;"/></g><!----></g><!----></g></g></g><g><g id="ducjAtiw" transform="matrix(1,0,0,1,24.48305005289037,62.76033526983895)"><defs><!----><!----><!----></defs><!----><!----><g><!----><g transform=""><!----><g id="ducjAtiw_origin" transform="skewX(0) skewY(0)"><path id="shapepath_ducjAtiw" d="M1.15,0.01C0.57,-0.06,0.07,0.36,0.01,0.93C-0.06,1.5,0.36,2.01,0.93,2.08L7.17,2.74C7.2,2.04,7.26,1.35,7.34,0.67Z" filter="" style="fill: rgb(255, 249, 154); stroke: none;"/></g><!----></g><!----></g></g></g><g><g id="oHrD8kAs" transform="matrix(1,0,0,1,87.987,96.72800000000002)"><defs><!----><!----><!----></defs><!----><!----><g><!----><g transform=""><!----><g id="oHrD8kAs_origin" transform="skewX(0) skewY(0)"><path id="shapepath_oHrD8kAs" d="M8.36,12.69C8.56,12.97,8.88,13.12,9.2,13.12C9.41,13.12,9.63,13.05,9.81,12.92C10.28,12.58,10.38,11.93,10.04,11.47L1.71,0C1.15,0.41,0.58,0.81,0,1.19Z" filter="" style="fill: rgb(255, 249, 154); stroke: none;"/></g><!----></g><!----></g></g></g><g><g id="fSHDIIhQ" transform="matrix(1,0,0,1,29.60121863468366,46.10614157966692)"><defs><!----><!----><!----></defs><!----><!----><g><!----><g transform=""><!----><g id="fSHDIIhQ_origin" transform="skewX(0) skewY(0)"><path id="shapepath_fSHDIIhQ" d="M1.56,0.14C1.06,-0.15,0.42,0.03,0.14,0.53C-0.15,1.02,0.03,1.66,0.53,1.95L5.87,4.99C6.18,4.37,6.51,3.76,6.86,3.16Z" filter="" style="fill: rgb(255, 249, 154); stroke: none;"/></g><!----></g><!----></g></g></g><g><g id="C7HrcWif" transform="matrix(1,0,0,1,56.31587890180652,102.82999999999998)"><defs><!----><!----><!----></defs><!----><!----><g><!----><g transform=""><!----><g id="C7HrcWif_origin" transform="skewX(0) skewY(0)"><path id="shapepath_C7HrcWif" d="M0.02,14.23C-0.1,14.79,0.26,15.34,0.82,15.46C0.9,15.48,0.97,15.48,1.04,15.48C1.52,15.48,1.96,15.15,2.06,14.66L5.08,0.43C4.4,0.31,3.72,0.16,3.05,0Z" filter="" style="fill: rgb(255, 249, 154); stroke: none;"/></g><!----></g><!----></g></g></g><g><g id="XEuh0YAE" transform="matrix(1,0,0,1,81.35199999999999,100.534)"><defs><!----><!----><!----></defs><!----><!----><g><!----><g transform=""><!----><g id="XEuh0YAE_origin" transform="skewX(0) skewY(0)"><path id="shapepath_XEuh0YAE" d="M2.55,6.54C2.73,6.93,3.1,7.16,3.5,7.16C3.65,7.16,3.79,7.13,3.93,7.07C4.45,6.84,4.69,6.22,4.45,5.69L1.91,0C1.29,0.29,0.65,0.56,0,0.82Z" filter="" style="fill: rgb(255, 249, 154); stroke: none;"/></g><!----></g><!----></g></g></g><g><g id="vqqr00km" transform="matrix(1,0,0,1,74.14800000000001,102.946)"><defs><!----><!----><!----></defs><!----><!----><g><!----><g transform=""><!----><g id="vqqr00km_origin" transform="skewX(0) skewY(0)"><path id="shapepath_vqqr00km" d="M3,14.54C3.11,15.03,3.54,15.37,4.02,15.37C4.09,15.37,4.17,15.36,4.24,15.35C4.8,15.23,5.16,14.67,5.04,14.11L2.04,0C1.37,0.15,0.69,0.29,0,0.41Z" filter="" style="fill: rgb(255, 249, 154); stroke: none;"/></g><!----></g><!----></g></g></g><g><g id="RF7KJucN" transform="matrix(1,0,0,1,98.56700000000001,85.521)"><defs><!----><!----><!----></defs><!----><!----><g><!----><g transform=""><!----><g id="RF7KJucN_origin" transform="skewX(0) skewY(0)"><path id="shapepath_RF7KJucN" d="M12.03,8.72C12.19,8.82,12.37,8.86,12.55,8.86C12.91,8.86,13.26,8.67,13.45,8.34C13.74,7.84,13.56,7.21,13.07,6.92L1.09,0C0.74,0.6,0.38,1.2,0,1.78Z" filter="" style="fill: rgb(255, 249, 154); stroke: none;"/></g><!----></g><!----></g></g></g><g><g id="pXnw5Iar" transform="matrix(1,0,0,1,102.009,78.614)"><defs><!----><!----><!----></defs><!----><!----><g><!----><g transform=""><!----><g id="pXnw5Iar_origin" transform="skewX(0) skewY(0)"><path id="shapepath_pXnw5Iar" d="M5.86,3.87C5.96,3.91,6.07,3.92,6.18,3.92C6.62,3.92,7.03,3.64,7.17,3.21C7.35,2.66,7.05,2.07,6.5,1.89L0.7,0C0.48,0.66,0.25,1.32,0,1.96Z" filter="" style="fill: rgb(255, 249, 154); stroke: none;"/></g><!----></g><!----></g></g></g><g><g id="R2CLdOi0" transform="matrix(1,0,0,1,66.63899839011792,103.841)"><defs><!----><!----><!----></defs><!----><!----><g><!----><g transform=""><!----><g id="R2CLdOi0_origin" transform="skewX(0) skewY(0)"><path id="shapepath_R2CLdOi0" d="M0.01,0L0,6.19C0,6.76,0.46,7.23,1.04,7.23C1.04,7.23,1.04,7.23,1.04,7.23C1.61,7.23,2.08,6.77,2.08,6.2L2.09,0.02C1.86,0.02,1.62,0.04,1.39,0.04C0.93,0.04,0.47,0.02,0.01,0Z" filter="" style="fill: rgb(255, 249, 154); stroke: none;"/></g><!----></g><!----></g></g></g><g><g id="WbGRfuQV" transform="matrix(1,0,0,1,102.581,51.80182158474)"><defs><!----><!----><!----></defs><!----><!----><g><!----><g transform=""><!----><g id="WbGRfuQV_origin" transform="skewX(0) skewY(0)"><path id="shapepath_WbGRfuQV" d="M13.11,2.03C13.66,1.85,13.96,1.27,13.78,0.72C13.6,0.17,13.02,-0.12,12.47,0.05L0,4.1C0.22,4.76,0.42,5.42,0.6,6.09Z" filter="" style="fill: rgb(255, 249, 154); stroke: none;"/></g><!----></g><!----></g></g></g><g><g id="Izy2eGIO" transform="matrix(1,0,0,1,104.23899999999999,62.84725658630552)"><defs><!----><!----><!----></defs><!----><!----><g><!----><g transform=""><!----><g id="Izy2eGIO_origin" transform="skewX(0) skewY(0)"><path id="shapepath_Izy2eGIO" d="M6.22,2.08C6.8,2.02,7.21,1.51,7.15,0.93C7.09,0.36,6.58,-0.05,6.01,0.01L0,0.63C0.07,1.32,0.13,2.01,0.17,2.7Z" filter="" style="fill: rgb(255, 249, 154); stroke: none;"/></g><!----></g><!----></g></g></g><g><g id="zzvzPLnD" transform="matrix(1,0,0,1,99.37400000000001,45.759309047771)"><defs><!----><!----><!----></defs><!----><!----><g><!----><g transform=""><!----><g id="zzvzPLnD_origin" transform="skewX(0) skewY(0)"><path id="shapepath_zzvzPLnD" d="M6.21,1.94C6.71,1.66,6.88,1.02,6.59,0.52C6.31,0.02,5.67,-0.15,5.17,0.14L0,3.12C0.35,3.72,0.69,4.33,1.01,4.94Z" filter="" style="fill: rgb(255, 249, 154); stroke: none;"/></g><!----></g><!----></g></g></g><g><g id="lw9AZvza" transform="matrix(1,0,0,1,94.709,33.776103994772015)"><defs><!----><!----><!----></defs><!----><!----><g><!----><g transform=""><!----><g id="lw9AZvza_origin" transform="skewX(0) skewY(0)"><path id="shapepath_lw9AZvza" d="M10.95,1.81C11.38,1.43,11.41,0.77,11.03,0.34C10.64,-0.08,9.99,-0.12,9.56,0.27L0,8.87C0.47,9.38,0.94,9.9,1.38,10.43Z" filter="" style="fill: rgb(255, 249, 154); stroke: none;"/></g><!----></g><!----></g></g></g><g><g id="PqovFuv4" transform="matrix(1,0,0,1,104.008,71.101)"><defs><!----><!----><!----></defs><!----><!----><g><!----><g transform=""><!----><g id="PqovFuv4_origin" transform="skewX(0) skewY(0)"><path id="shapepath_PqovFuv4" d="M13.65,1.41L0.27,0C0.2,0.69,0.11,1.38,0,2.06L13.43,3.48C13.47,3.48,13.5,3.48,13.54,3.48C14.06,3.48,14.52,3.08,14.57,2.55C14.63,1.98,14.22,1.47,13.65,1.41Z" filter="" style="fill: rgb(255, 249, 154); stroke: none;"/></g><!----></g><!----></g></g></g><g><g id="rZUw31MS" transform="matrix(1,0,0,1,93.784,91.69100000000002)"><defs><!----><!----><!----></defs><!----><!----><g><!----><g transform=""><!----><g id="rZUw31MS_origin" transform="skewX(0) skewY(0)"><path id="shapepath_rZUw31MS" d="M0,1.52L4.6,5.67C4.8,5.85,5.05,5.94,5.3,5.94C5.58,5.94,5.86,5.82,6.07,5.59C6.45,5.17,6.42,4.51,5.99,4.13L1.43,0C0.96,0.52,0.49,1.03,0,1.52Z" filter="" style="fill: rgb(255, 249, 154); stroke: none;"/></g><!----></g><!----></g></g></g><g><g id="muU5vZM0" transform="matrix(1,0,0,1,66.72300000000001,17.213)"><defs><!----><!----><!----></defs><!----><!----><g><!----><g transform=""><!----><g id="muU5vZM0_origin" transform="skewX(0) skewY(0)"><path id="shapepath_muU5vZM0" d="M2.08,13.82V1.04C2.08,0.47,1.62,0,1.04,0C0.47,0,0,0.47,0,1.04V13.83C0.43,13.82,0.87,13.8,1.3,13.8C1.56,13.8,1.82,13.82,2.08,13.82Z" filter="" style="fill: rgb(255, 249, 154); stroke: none;"/></g><!----></g><!----></g></g></g><g><g id="DPNZfNXt" transform="matrix(1,0,0,1,29.524205213080187,33.77585055283517)"><defs><!----><!----><!----></defs><!----><!----><g><!----><g transform=""><!----><g id="DPNZfNXt_origin" transform="skewX(0) skewY(0)"><path id="shapepath_DPNZfNXt" d="M1.74,0.27C1.31,-0.12,0.65,-0.08,0.27,0.34C-0.12,0.77,-0.08,1.43,0.34,1.81L10.22,10.71C10.66,10.17,11.11,9.64,11.58,9.13Z" filter="" style="fill: rgb(255, 249, 154); stroke: none;"/></g><!----></g><!----></g></g></g><g><g id="mCZcER2z" transform="matrix(1,0,0,1,46.362778662829626,21.541332691435077)"><defs><!----><!----><!----></defs><!----><!----><g><!----><g transform=""><!----><g id="mCZcER2z_origin" transform="skewX(0) skewY(0)"><path id="shapepath_mCZcER2z" d="M1.99,0.62C1.76,0.09,1.14,-0.14,0.62,0.09C0.09,0.32,-0.14,0.94,0.09,1.47L5.37,13.32C5.99,13.01,6.62,12.71,7.26,12.44Z" filter="" style="fill: rgb(255, 249, 154); stroke: none;"/></g><!----></g><!----></g></g></g><g><g id="bTibxWFQ" transform="matrix(1,0,0,1,41.311603761753496,32.40117107584502)"><defs><!----><!----><!----></defs><!----><!----><g><!----><g transform=""><!----><g id="bTibxWFQ_origin" transform="skewX(0) skewY(0)"><path id="shapepath_bTibxWFQ" d="M1.88,0.43C1.54,-0.04,0.89,-0.14,0.43,0.2C-0.04,0.54,-0.14,1.19,0.2,1.65L3.86,6.68C4.4,6.24,4.96,5.83,5.52,5.42Z" filter="" style="fill: rgb(255, 249, 154); stroke: none;"/></g><!----></g><!----></g></g></g><g><g id="GMkAocGa" transform="matrix(1,0,0,1,57.705878901806514,24.854923024817143)"><defs><!----><!----><!----></defs><!----><!----><g><!----><g transform=""><!----><g id="GMkAocGa_origin" transform="skewX(0) skewY(0)"><path id="shapepath_GMkAocGa" d="M2.06,0.82C1.94,0.26,1.39,-0.1,0.82,0.02C0.26,0.14,-0.1,0.7,0.02,1.26L1.31,7.29C1.97,7.12,2.65,6.97,3.34,6.84Z" filter="" style="fill: rgb(255, 249, 154); stroke: none;"/></g><!----></g><!----></g></g></g><g><g id="IGPUO46p" transform="matrix(1,0,0,1,74.511,24.855467813447728)"><defs><!----><!----><!----></defs><!----><!----><g><!----><g transform=""><!----><g id="IGPUO46p_origin" transform="skewX(0) skewY(0)"><path id="shapepath_IGPUO46p" d="M3.3,1.26C3.42,0.69,3.06,0.14,2.49,0.02C1.93,-0.1,1.38,0.26,1.26,0.82L0,6.74C0.69,6.87,1.36,7.01,2.04,7.17Z" filter="" style="fill: rgb(255, 249, 154); stroke: none;"/></g><!----></g><!----></g></g></g><g><g id="GNak3Ftv" transform="matrix(1,0,0,1,81.994,21.540760728648085)"><defs><!----><!----><!----></defs><!----><!----><g><!----><g transform=""><!----><g id="GNak3Ftv_origin" transform="skewX(0) skewY(0)"><path id="shapepath_GNak3Ftv" d="M7.08,1.47C7.31,0.94,7.08,0.32,6.55,0.09C6.03,-0.14,5.41,0.09,5.18,0.62L0,12.25C0.64,12.52,1.28,12.8,1.9,13.1Z" filter="" style="fill: rgb(255, 249, 154); stroke: none;"/></g><!----></g><!----></g></g></g><g><g id="rERFUdtc" transform="matrix(1,0,0,1,88.843,32.31395266620553)"><defs><!----><!----><!----></defs><!----><!----><g><!----><g transform=""><!----><g id="rERFUdtc_origin" transform="skewX(0) skewY(0)"><path id="shapepath_rERFUdtc" d="M5.18,1.65C5.52,1.19,5.42,0.54,4.95,0.2C4.49,-0.14,3.84,-0.04,3.5,0.43L0,5.24C0.57,5.64,1.13,6.05,1.67,6.48Z" filter="" style="fill: rgb(255, 249, 154); stroke: none;"/></g><!----></g><!----></g></g></g></g></g><!----></g><!----></g></g></g></g></g><!----></g><!----></g></g></g></g></g><!----></g><!----></g></g></g></g></g><!----></g><!----></g></g></g><g><g id="JWnZ25k6" transform="matrix(1,0,0,1,24.365126369302203,51.110304783484736)" style=""><defs><!----><!----><!----></defs><!----><!----><g><!----><g transform=""><!----><g id="JWnZ25k6_origin" transform="skewX(0) skewY(0)"><path id="shapepath_JWnZ25k6" d="M85.38,29.49C85.38,23.62,80.8,18.43,74.29,17.08C74.02,7.58,65.23,0,54.42,0C48.41,0,42.64,2.44,38.9,6.7C35.78,3.16,30.36,1.92,25.73,3.68C21.09,5.41,18.36,9.63,19.04,14.07C14.3,13.31,9.44,14.44,5.81,17.18C2.14,19.84,0,23.85,0,28.09C0,31.83,1.7,35.48,4.75,38.15C7.74,40.84,11.85,42.34,16.18,42.34H70.87C78.86,42.34,85.38,36.61,85.38,29.49Z" filter="" style="fill: rgba(255, 255, 255, 0.953); stroke: rgb(31, 31, 74); stroke-width: 0.43px;"/></g><!----></g><!----></g></g></g></g></g><!----></g><!----></g></g><g fill="#ffffff11" transform="translate(67.764, 67.764)"><text text-anchor="middle" style="font: 16.941px Arial;"> DRAWTIFY </text></g></g></svg>