<svg version="1.2" width="136" height="136" viewBox="0 0 136 136" xmlns="http://www.w3.org/2000/svg" xmlns:xlink="http://www.w3.org/1999/xlink"><defs><style/></defs><g><g id="wbEeLcOH" transform="matrix(1,0,0,1,0,0)"><defs><!----><!----><!----></defs><!----><!----><g><!----><g transform=""><!----><g id="wbEeLcOH_origin" transform="skewX(0) skewY(0)"><path id="shapepath_wbEeLcOH" d="M0,135.53V0H135.53V135.53Z" filter="" style="fill: rgba(255, 255, 255, 0); stroke: none;"/></g><!----></g><!----></g></g><g id="hrLwYsLl" transform="matrix(1,0,0,1,-0.5642318725585938,0)"><defs><!----><!----><!----></defs><defs><linearGradient x1="0" y1="0" x2="1" y2="1" id="hrLwYsLl_fill"><stop offset="0" stop-color="#B3E7E4FF"/><stop offset="1" stop-color="#81d7d2ff"/></linearGradient></defs><!----><g><!----><g transform=""><!----><g id="hrLwYsLl_origin" transform="skewX(0) skewY(0)"><path id="shapepath_hrLwYsLl" d="M0,67.76C0,30.34,30.34,0,67.76,0C105.19,0,135.53,30.34,135.53,67.76C135.53,105.19,105.19,135.53,67.76,135.53C30.34,135.53,0,105.19,0,67.76Z" filter="" style="fill: url(&quot;#hrLwYsLl_fill&quot;); stroke: none;"/></g><!----></g><!----></g></g><g id="BG6VTlKi" transform="matrix(1,0,0,1,13.814388336181636,19.174568237304683)"><defs><!----><!----><!----></defs><!----><!----><g><!----><g transform=""><!----><g id="BG6VTlKi_origin" transform="skewX(0) skewY(0)"><image x="0" y="0" width="71.22428131103516" height="71.22428131103516" xlink:href="data:image/svg+xml;utf8,%3Csvg%20version%3D%221.1%22%20id%3D%22Capa_1%22%20xmlns%3D%22http%3A%2F%2Fwww.w3.org%2F2000%2Fsvg%22%20xmlns%3Axlink%3D%22http%3A%2F%2Fwww.w3.org%2F1999%2Fxlink%22%20x%3D%220px%22%20y%3D%220px%22%0D%0A%09%20viewBox%3D%220%200%20463.879%20463.879%22%20style%3D%22enable-background%3Anew%200%200%20463.879%20463.879%3B%22%20xml%3Aspace%3D%22preserve%22%3E%0D%0A%3Cpath%20style%3D%22fill%3A%23E1E4E7%3B%22%20d%3D%22M427.116%2C267.359c15.239-41.363-5.939-87.248-47.303-102.487c-8.893-3.276-18.299-4.943-27.777-4.921%0D%0A%09c-3.654%2C0.019-7.302%2C0.286-10.92%2C0.8c-39.205-69.057-126.968-93.258-196.025-54.053c-25.504%2C14.479-45.971%2C36.411-58.655%2C62.853%0D%0A%09c-56.585%2C9.679-94.61%2C63.396-84.931%2C119.981c8.543%2C49.948%2C51.858%2C86.456%2C102.531%2C86.419h304%0D%0A%09c30.928-0.087%2C55.93-25.229%2C55.843-56.157C463.813%2C296.342%2C449.141%2C275.415%2C427.116%2C267.359z%22%2F%3E%0D%0A%3Cpath%20style%3D%22fill%3A%23A6ADB9%3B%22%20d%3D%22M352.036%2C151.951c-2.184%2C0-4.472%2C0.136-6.864%2C0.344c-1.64%2C0.128-3.264%2C0.32-4.888%2C0.536h-0.256%0D%0A%09c-43.514%2C6.022-75.936%2C43.191-75.992%2C87.12h16c0.063-35.927%2C26.581-66.318%2C62.168-71.248c1.6-0.216%2C3.008-0.36%2C4.408-0.488%0D%0A%09c1.792-0.136%2C3.592-0.272%2C5.424-0.272c39.658-0.106%2C71.893%2C31.958%2C71.999%2C71.617c0.023%2C8.547-1.48%2C17.029-4.439%2C25.047l14.832%2C6.008%0D%0A%09c3.62-9.822%2C5.518-20.196%2C5.608-30.664C439.979%2C191.374%2C400.613%2C152.008%2C352.036%2C151.951L352.036%2C151.951z%22%2F%3E%0D%0A%3Cg%3E%0D%0A%3C%2Fg%3E%0D%0A%3Cg%3E%0D%0A%3C%2Fg%3E%0D%0A%3Cg%3E%0D%0A%3C%2Fg%3E%0D%0A%3Cg%3E%0D%0A%3C%2Fg%3E%0D%0A%3Cg%3E%0D%0A%3C%2Fg%3E%0D%0A%3Cg%3E%0D%0A%3C%2Fg%3E%0D%0A%3Cg%3E%0D%0A%3C%2Fg%3E%0D%0A%3Cg%3E%0D%0A%3C%2Fg%3E%0D%0A%3Cg%3E%0D%0A%3C%2Fg%3E%0D%0A%3Cg%3E%0D%0A%3C%2Fg%3E%0D%0A%3Cg%3E%0D%0A%3C%2Fg%3E%0D%0A%3Cg%3E%0D%0A%3C%2Fg%3E%0D%0A%3Cg%3E%0D%0A%3C%2Fg%3E%0D%0A%3Cg%3E%0D%0A%3C%2Fg%3E%0D%0A%3Cg%3E%0D%0A%3C%2Fg%3E%0D%0A%3C%2Fsvg%3E%0D%0A" filter="" style="stroke: none;"/></g><!----></g><!----></g></g><g id="CAvEB9a2" transform="matrix(1,0,0,1,15.087653355673638,37.29144991134797)"><defs><!----><!----><!----></defs><!----><!----><g><!----><g transform=""><!----><g id="CAvEB9a2_origin" transform="skewX(0) skewY(0)"><path id="shapepath_CAvEB9a2" d="M35.98,3.82C26.61,3.82,18.99,9.51,18.99,16.55C18.99,18.47,19.56,20.32,20.67,22.05C21.3,23.05,20.85,24.23,19.64,24.85C18.7,25.34,17.81,25.91,16.99,26.51C11.84,30.36,10.29,36.18,13.1,41.24C15.87,46.29,22.42,49.59,29.73,49.59H88.46C98.42,49.59,106.48,43.54,106.48,36.06C106.48,30.42,101.79,25.37,94.76,23.37C93.59,23.07,92.84,22.22,92.82,21.3V21.2C92.84,13,86.52,5.54,76.67,2.03C66.79,-1.47,55.1,-0.39,46.67,4.83C45.78,5.38,44.52,5.5,43.47,5.1C41.15,4.25,38.58,3.82,35.98,3.82ZM2.97,75.34C2.18,75.32,1.43,75.08,0.86,74.68C0.31,74.28,0,73.7,0,73.12C0,72.53,0.31,71.96,0.86,71.53L3.87,69.3C5,68.44,6.88,68.44,8.04,69.3C9.18,70.16,9.18,71.58,8.04,72.45L5.04,74.68C4.47,75.08,3.75,75.32,2.97,75.34ZM21.57,75.34C20.79,75.34,20.04,75.08,19.48,74.68C18.91,74.28,18.6,73.7,18.6,73.12C18.6,72.53,18.91,71.96,19.48,71.53L22.46,69.3C23.62,68.44,25.48,68.44,26.63,69.3C27.8,70.16,27.8,71.58,26.63,72.45L23.64,74.68C23.09,75.08,22.36,75.32,21.57,75.34ZM40.19,75.34C39.39,75.32,38.64,75.08,38.07,74.68C37.53,74.28,37.21,73.7,37.21,73.12C37.21,72.53,37.53,71.96,38.07,71.53L41.07,69.3C42.21,68.44,44.09,68.44,45.25,69.3C46.4,70.16,46.4,71.58,45.25,72.45L42.25,74.68C41.7,75.08,40.96,75.32,40.19,75.34ZM58.78,75.34C57.98,75.32,57.25,75.08,56.67,74.68C56.12,74.28,55.81,73.7,55.81,73.12C55.81,72.53,56.12,71.96,56.67,71.53L59.68,69.3C60.83,68.44,62.69,68.44,63.86,69.3C65,70.16,65,71.58,63.86,72.45L60.85,74.68C60.31,75.08,59.55,75.32,58.78,75.34ZM77.4,75.34C76.61,75.32,75.85,75.08,75.28,74.68C74.75,74.28,74.43,73.7,74.43,73.12C74.43,72.53,74.75,71.96,75.28,71.53L78.28,69.3C79.43,68.44,81.32,68.44,82.46,69.3C83.61,70.16,83.61,71.58,82.46,72.45L79.47,74.68C78.93,75.08,78.18,75.32,77.4,75.34ZM16.06,65.18C15.28,65.15,14.52,64.93,13.95,64.52C13.41,64.09,13.1,63.52,13.1,62.95C13.1,62.35,13.41,61.8,13.95,61.38L16.97,59.13C18.12,58.27,19.98,58.27,21.13,59.13C22.28,60.01,22.28,61.41,21.13,62.28L18.14,64.52C17.59,64.94,16.84,65.18,16.06,65.18ZM34.66,65.18C33.89,65.15,33.13,64.93,32.57,64.52C32.01,64.09,31.69,63.52,31.69,62.95C31.69,62.35,32.01,61.8,32.57,61.38L35.56,59.13C36.72,58.27,38.58,58.27,39.72,59.13C40.9,60.01,40.9,61.41,39.72,62.28L36.76,64.52C36.19,64.94,35.46,65.18,34.66,65.18ZM53.28,65.18C52.49,65.15,51.73,64.93,51.17,64.52C50.62,64.09,50.31,63.52,50.31,62.95C50.31,62.35,50.62,61.8,51.17,61.38L54.16,59.13C55.31,58.27,57.19,58.27,58.35,59.13C59.49,60.01,59.49,61.41,58.35,62.28L55.35,64.52C54.8,64.94,54.06,65.18,53.28,65.18ZM71.88,65.18C71.08,65.15,70.35,64.93,69.79,64.52C69.22,64.09,68.91,63.52,68.91,62.95C68.91,62.35,69.22,61.8,69.79,61.38L72.77,59.13C73.93,58.27,75.79,58.27,76.94,59.13C78.11,60.01,78.11,61.41,76.94,62.28L73.95,64.52C73.4,64.94,72.65,65.18,71.88,65.18ZM90.48,65.18C89.7,65.15,88.95,64.93,88.38,64.52C87.81,64.09,87.52,63.52,87.52,62.95C87.52,62.35,87.81,61.8,88.38,61.38L91.38,59.13C92.52,58.27,94.4,58.27,95.56,59.13C96.7,60.01,96.7,61.41,95.56,62.28L92.56,64.52C92.03,64.94,91.27,65.18,90.48,65.18Z" filter="" style="fill: rgb(255, 255, 255); stroke: rgb(31, 31, 74); stroke-width: 0.5px;"/></g><!----></g><!----></g></g><g fill="#ffffff11" transform="translate(67.764, 67.764)"><text text-anchor="middle" style="font: 16.941px Arial;"> DRAWTIFY </text></g></g></svg>