<svg version="1.2" width="136" height="136" viewBox="0 0 136 136" xmlns="http://www.w3.org/2000/svg" xmlns:xlink="http://www.w3.org/1999/xlink"><defs><style/></defs><g><g id="UWiERzcK" transform="matrix(1,0,0,1,-0.5642318725585938,0)"><defs><!----><!----><!----></defs><!----><!----><g><!----><g transform=""><!----><g id="UWiERzcK_origin" transform="skewX(0) skewY(0)"><g filter=""><g><g id="LUHoHEPL" transform="matrix(1,0,0,1,0.5642318725585938,0)"><defs><!----><!----><!----></defs><!----><!----><g><!----><g transform=""><!----><g id="LUHoHEPL_origin" transform="skewX(0) skewY(0)"><path id="shapepath_LUHoHEPL" d="M0,135.53V0H135.53V135.53Z" filter="" style="fill: rgba(255, 255, 255, 0); stroke: none;"/></g><!----></g><!----></g></g></g><g><g id="Srz2tzEh" transform="matrix(1,0,0,1,0,0)"><defs><!----><!----><!----></defs><defs><linearGradient x1="0" y1="0" x2="1" y2="1" id="Srz2tzEh_fill"><stop offset="0" stop-color="#B3E7E4FF"/><stop offset="1" stop-color="#81d7d2ff"/></linearGradient></defs><!----><g><!----><g transform=""><!----><g id="Srz2tzEh_origin" transform="skewX(0) skewY(0)"><path id="shapepath_Srz2tzEh" d="M0,67.76C0,30.34,30.34,0,67.76,0C105.19,0,135.53,30.34,135.53,67.76C135.53,105.19,105.19,135.53,67.76,135.53C30.34,135.53,0,105.19,0,67.76Z" filter="" style="fill: url(&quot;#Srz2tzEh_fill&quot;); stroke: none;"/></g><!----></g><!----></g></g></g><g><g id="tjhcrTXa" transform="matrix(1,0,0,1,88.52900724648453,31.161368891737354)"><defs><!----><!----><!----></defs><!----><!----><g><!----><g transform=""><!----><g id="tjhcrTXa_origin" transform="skewX(0) skewY(0)"><path id="shapepath_tjhcrTXa" d="M31.67,8.53C31.44,5.22,28.88,2.28,25.02,0.86C21.15,-0.55,16.6,-0.21,13.16,1.76C12.24,1.47,11.27,1.32,10.29,1.32C7.75,1.32,5.39,2.28,3.92,3.89C2.46,5.49,2.09,7.53,2.94,9.39C2.75,9.5,2.56,9.65,2.39,9.77C0.05,11.59,-0.64,14.29,0.62,16.66C1.87,19.03,4.85,20.57,8.16,20.57H8.59C8.33,20.36,8.18,20.08,8.19,19.78C8.19,19.31,8.54,18.89,9.1,18.71C8.66,18.24,8.74,17.61,9.26,17.19C9.77,16.79,10.6,16.74,11.2,17.07C11.4,16.71,11.83,16.46,12.31,16.38C12.8,16.31,13.3,16.43,13.66,16.7C13.94,16.93,14.1,17.22,14.1,17.53V19.29L16.66,21.26V18.47L15.05,17.22C14.76,17,14.6,16.7,14.6,16.4C14.6,16.09,14.76,15.79,15.05,15.56C15.48,15.24,16.11,15.12,16.67,15.3C16.8,14.74,17.44,14.32,18.17,14.32C18.91,14.32,19.54,14.74,19.66,15.3C20.34,15.09,21.09,15.28,21.48,15.76C21.87,16.22,21.8,16.84,21.28,17.22L19.69,18.49V21.31L22.26,19.32V17.56C22.26,17.24,22.41,16.96,22.7,16.73C23,16.5,23.37,16.38,23.77,16.38C24.37,16.38,24.91,16.66,25.15,17.08C25.75,16.76,26.58,16.8,27.11,17.22C27.63,17.62,27.69,18.26,27.27,18.73C27.81,18.91,28.17,19.34,28.17,19.8C28.17,20.09,28.04,20.36,27.81,20.57H28.17C32.68,20.57,36.35,17.74,36.35,14.24C36.32,11.8,34.51,9.58,31.67,8.53ZM29.27,23.57H28.03L28.69,23.04C28.84,22.92,28.93,22.78,28.93,22.62C28.93,22.45,28.84,22.28,28.69,22.17C28.37,21.93,27.87,21.93,27.55,22.17L25.74,23.57H20.13L24.11,20.5L26.66,20.51C27.11,20.51,27.47,20.22,27.47,19.87C27.47,19.53,27.11,19.25,26.66,19.25H25.72L26.61,18.56C26.92,18.31,26.92,17.91,26.61,17.68C26.46,17.56,26.25,17.49,26.04,17.49C25.83,17.49,25.62,17.56,25.47,17.68L24.58,18.37V17.64C24.57,17.3,24.21,17,23.77,17C23.33,17,22.97,17.3,22.96,17.64V19.62L18.97,22.69V18.33L20.78,16.94C21.1,16.69,21.1,16.29,20.78,16.05C20.47,15.8,19.96,15.8,19.64,16.05L18.97,16.57V15.58C18.97,15.25,18.62,14.97,18.17,14.97C17.95,14.97,17.76,15.04,17.6,15.16C17.45,15.27,17.37,15.43,17.37,15.58V16.57L16.69,16.05C16.38,15.8,15.87,15.8,15.55,16.05C15.24,16.29,15.24,16.69,15.55,16.94L17.37,18.33V22.69L13.39,19.6V17.62C13.39,17.28,13.04,17,12.59,16.99C12.14,17,11.79,17.28,11.78,17.62V18.35L10.89,17.67C10.58,17.41,10.07,17.41,9.75,17.67C9.43,17.91,9.43,18.3,9.75,18.54L10.63,19.23H9.69C9.26,19.23,8.88,19.51,8.88,19.86C8.88,20.21,9.26,20.49,9.69,20.49H12.24L16.21,23.57H10.59L8.78,22.17C8.48,21.93,7.97,21.93,7.65,22.17C7.33,22.42,7.33,22.81,7.65,23.05L8.31,23.57H7.07C6.62,23.57,6.25,23.85,6.25,24.21C6.25,24.54,6.62,24.83,7.07,24.83H8.31L7.65,25.35C7.34,25.6,7.34,25.98,7.65,26.22C7.8,26.34,8.01,26.42,8.23,26.41C8.44,26.41,8.65,26.34,8.8,26.22L10.61,24.83H16.22L12.24,27.9H9.69C9.26,27.9,8.88,28.2,8.88,28.54C8.88,28.87,9.26,29.16,9.69,29.16H10.63L9.74,29.84C9.43,30.09,9.43,30.49,9.74,30.72C10.05,30.98,10.57,30.98,10.89,30.74L11.77,30.05V30.79C11.77,31.11,12.13,31.41,12.57,31.41C13.02,31.41,13.38,31.11,13.38,30.79V28.8L17.37,25.72V30.07L15.55,31.46C15.24,31.71,15.24,32.11,15.55,32.36C15.87,32.59,16.38,32.59,16.69,32.36L17.37,31.83V32.81C17.37,33.16,17.72,33.43,18.17,33.43C18.62,33.43,18.97,33.16,18.97,32.81V31.83L19.64,32.36C19.8,32.47,19.99,32.52,20.22,32.52C20.43,32.52,20.64,32.47,20.79,32.36C21.11,32.11,21.11,31.71,20.79,31.46L18.97,30.05V25.71L22.94,28.81V30.79C22.94,31.11,23.31,31.41,23.75,31.41C24.2,31.41,24.57,31.11,24.57,30.79V30.05L25.44,30.74C25.59,30.85,25.79,30.93,26.02,30.93C26.34,30.93,26.63,30.77,26.75,30.53C26.88,30.3,26.81,30.03,26.58,29.86L25.7,29.17H26.64C27.08,29.17,27.45,28.88,27.45,28.54C27.45,28.21,27.08,27.92,26.64,27.92H24.08L20.12,24.83H25.74L27.55,26.22C27.7,26.34,27.91,26.42,28.12,26.41C28.33,26.41,28.54,26.34,28.71,26.22C29.01,25.98,29.01,25.6,28.71,25.35L28.03,24.83H29.27C29.72,24.83,30.1,24.54,30.1,24.19C30.1,23.85,29.72,23.57,29.27,23.57Z" filter="" style="fill: rgb(255, 255, 255); stroke: rgb(31, 31, 74); stroke-width: 0.2px;"/></g><!----></g><!----></g></g></g><g><g id="Xl9g9ddJ" transform="matrix(1,0,0,1,9.695161578957965,44.62305173035428)"><defs><!----><!----><!----></defs><!----><!----><g><!----><g transform=""><!----><g id="Xl9g9ddJ_origin" transform="skewX(0) skewY(0)"><path id="shapepath_Xl9g9ddJ" d="M54.33,55.3H32.84C32.03,55.3,31.36,55.81,31.36,56.43V58.11C31.36,58.75,32.03,59.25,32.84,59.25L54.33,59.26C55.16,59.25,55.83,58.75,55.83,58.11V56.43C55.83,55.81,55.16,55.3,54.33,55.3ZM34.42,39.49C34.42,39.38,34.39,39.28,34.32,39.18L33.39,37.97C33.25,37.77,32.98,37.66,32.7,37.66C32.57,37.66,32.43,37.69,32.3,37.75L29.9,38.8L30.42,37.39C30.42,37.33,30.44,37.29,30.44,37.25C30.44,36.98,30.19,36.74,29.85,36.66L28.04,36.29C27.96,36.27,27.92,36.26,27.84,36.26C27.48,36.26,27.14,36.44,27.08,36.72L25.68,40.65L22.22,42.17V39.31L26,36.43C26.16,36.31,26.23,36.15,26.23,36C26.23,35.85,26.16,35.69,26,35.57L24.7,34.58C24.54,34.46,24.34,34.4,24.14,34.4C23.91,34.4,23.72,34.45,23.56,34.58L22.22,35.6V33.31C22.22,32.99,21.87,32.72,21.44,32.72H19.57C19.13,32.72,18.78,32.99,18.78,33.31V35.6L17.41,34.58C17.28,34.45,17.06,34.4,16.85,34.4C16.65,34.4,16.46,34.45,16.31,34.58L14.99,35.57C14.82,35.69,14.76,35.85,14.76,36C14.76,36.15,14.82,36.31,14.99,36.43L18.78,39.31V42.17L15.51,40.74L14.13,36.81C14.04,36.54,13.71,36.36,13.36,36.36C13.3,36.36,13.24,36.36,13.12,36.39L11.36,36.75C11.01,36.81,10.77,37.05,10.77,37.33C10.77,37.38,10.78,37.45,10.8,37.51L11.3,38.88L8.69,37.75C8.56,37.7,8.42,37.66,8.29,37.66C8.03,37.66,7.75,37.77,7.6,37.97L6.68,39.19C6.6,39.28,6.58,39.39,6.58,39.49C6.55,39.69,6.71,39.91,6.96,40.01L9.57,41.16L7.73,41.53C7.37,41.6,7.15,41.85,7.15,42.11C7.15,42.17,7.16,42.23,7.18,42.3L7.65,43.63C7.77,43.91,8.08,44.09,8.42,44.09C8.49,44.09,8.56,44.08,8.62,44.07L13.78,43.02L17.06,44.45L13.78,45.87L8.62,44.83C8.56,44.82,8.48,44.8,8.41,44.8C8.07,44.8,7.75,44.97,7.65,45.25L7.17,46.63C7.15,46.66,7.15,46.71,7.15,46.77C7.15,47.05,7.37,47.28,7.73,47.36L9.57,47.74L6.96,48.87C6.71,48.99,6.55,49.19,6.55,49.4C6.55,49.5,6.59,49.6,6.68,49.7L7.6,50.94C7.75,51.13,8.03,51.23,8.29,51.23C8.42,51.23,8.56,51.21,8.68,51.15L11.3,50L10.8,51.41C10.78,51.45,10.77,51.5,10.77,51.56C10.77,51.83,11.01,52.07,11.36,52.15L13.16,52.52C13.25,52.53,13.3,52.53,13.36,52.53C13.7,52.53,14.02,52.35,14.13,52.09L15.51,48.15L18.78,46.71V49.76L14.99,52.65C14.82,52.76,14.76,52.93,14.76,53.06C14.76,53.23,14.82,53.37,14.99,53.49L16.32,54.5C16.46,54.62,16.65,54.67,16.85,54.67C17.08,54.67,17.28,54.62,17.41,54.5L18.78,53.48V55.59C18.78,55.92,19.13,56.18,19.56,56.18H21.44C21.87,56.18,22.22,55.92,22.22,55.59V53.47L23.57,54.5C23.72,54.62,23.91,54.67,24.14,54.67C24.32,54.67,24.52,54.62,24.68,54.5L26,53.5C26.16,53.37,26.23,53.22,26.23,53.06C26.23,52.92,26.16,52.75,26,52.63L22.22,49.76V46.71L25.68,48.24L27.08,52.17C27.14,52.44,27.48,52.61,27.84,52.61C27.92,52.61,27.96,52.61,28.01,52.6L29.85,52.23C30.19,52.16,30.44,51.91,30.44,51.65C30.44,51.6,30.42,51.54,30.42,51.5L29.9,50.1L32.32,51.15C32.43,51.21,32.57,51.23,32.7,51.23C32.98,51.23,33.24,51.13,33.39,50.94L34.32,49.69C34.39,49.6,34.42,49.5,34.42,49.4C34.42,49.19,34.3,48.99,34.03,48.87L31.62,47.83L33.47,47.45C33.82,47.37,34.05,47.12,34.05,46.88C34.05,46.81,34.05,46.76,34.03,46.71L33.53,45.34C33.43,45.08,33.14,44.89,32.78,44.89C32.73,44.89,32.64,44.9,32.56,44.93L27.4,45.97L23.93,44.45L27.4,42.92L32.57,43.97C32.64,44,32.73,44,32.78,44C33.14,44,33.43,43.82,33.53,43.56L34.03,42.18C34.05,42.12,34.05,42.07,34.05,42.03C34.05,41.76,33.82,41.52,33.47,41.45L31.62,41.06L34.03,40.01C34.3,39.9,34.42,39.69,34.42,39.49ZM77.38,47.82L79.22,47.45C79.57,47.37,79.82,47.12,79.82,46.86C79.82,46.81,79.82,46.76,79.79,46.71L79.31,45.34C79.21,45.07,78.88,44.89,78.54,44.89C78.5,44.89,78.41,44.89,78.34,44.91L73.16,45.97L69.7,44.45L73.16,42.92L78.35,43.97C78.42,44,78.49,44,78.54,44C78.88,44,79.2,43.82,79.31,43.56L79.79,42.18C79.82,42.12,79.82,42.07,79.82,42.03C79.82,41.76,79.57,41.52,79.22,41.45L77.38,41.06L79.79,40.01C80.02,39.9,80.18,39.69,80.18,39.49C80.18,39.38,80.16,39.28,80.07,39.18L79.14,37.96C79.01,37.77,78.73,37.65,78.46,37.65C78.35,37.65,78.18,37.69,78.06,37.75L75.65,38.79L76.16,37.39C76.17,37.33,76.17,37.28,76.17,37.23C76.17,36.98,75.95,36.73,75.59,36.66L73.79,36.29C73.73,36.27,73.66,36.26,73.59,36.26C73.24,36.26,72.93,36.44,72.82,36.72L71.44,40.64L67.98,42.17V39.31L71.75,36.43C71.9,36.3,72.01,36.15,72.01,36C72.01,35.85,71.9,35.69,71.75,35.57L70.43,34.57C70.29,34.45,70.08,34.4,69.87,34.4C69.7,34.4,69.48,34.45,69.3,34.58L67.98,35.6V33.31C67.98,32.97,67.63,32.71,67.18,32.71H65.32C64.88,32.71,64.53,32.97,64.53,33.31V35.6L63.18,34.57C63.03,34.45,62.82,34.4,62.62,34.4C62.43,34.4,62.2,34.45,62.07,34.58L60.75,35.57C60.6,35.69,60.52,35.85,60.52,36C60.52,36.15,60.6,36.3,60.75,36.43L64.53,39.31V42.17L61.29,40.74L59.89,36.81C59.8,36.54,59.48,36.36,59.1,36.36C59.05,36.36,58.96,36.36,58.88,36.39L57.12,36.75C56.76,36.81,56.51,37.05,56.51,37.33C56.51,37.38,56.53,37.45,56.57,37.51L57.04,38.89L54.45,37.75C54.33,37.7,54.19,37.66,54.06,37.66C53.79,37.66,53.5,37.77,53.37,37.97L52.43,39.19C52.36,39.28,52.33,39.39,52.33,39.49C52.33,39.69,52.47,39.91,52.71,40.01L55.33,41.16L53.49,41.53C53.14,41.6,52.91,41.85,52.91,42.11C52.91,42.17,52.92,42.23,52.93,42.3L53.42,43.63C53.52,43.91,53.83,44.09,54.19,44.09C54.25,44.09,54.32,44.08,54.36,44.07L59.55,43.02L62.82,44.45L59.55,45.89L54.38,44.84C54.32,44.82,54.25,44.81,54.19,44.81C53.84,44.81,53.52,44.97,53.42,45.25L52.93,46.63C52.92,46.68,52.91,46.73,52.91,46.79C52.91,47.05,53.14,47.28,53.49,47.36L55.33,47.74L52.71,48.87C52.47,48.99,52.33,49.2,52.33,49.4C52.33,49.51,52.36,49.62,52.43,49.7L53.37,50.94C53.5,51.13,53.79,51.23,54.06,51.23C54.19,51.23,54.33,51.21,54.43,51.17L57.04,50L56.56,51.41C56.54,51.45,56.51,51.51,56.51,51.56C56.51,51.84,56.76,52.08,57.12,52.15L58.92,52.52C58.99,52.53,59.05,52.53,59.1,52.53C59.48,52.53,59.79,52.35,59.89,52.09L61.26,48.15L64.52,46.73V49.77L60.75,52.65C60.6,52.76,60.52,52.93,60.52,53.06C60.52,53.23,60.6,53.37,60.75,53.5L62.07,54.51C62.2,54.62,62.43,54.67,62.62,54.67C62.82,54.67,63.03,54.62,63.18,54.51L64.52,53.48V55.59C64.52,55.92,64.88,56.18,65.32,56.18H67.17C67.63,56.18,67.98,55.92,67.98,55.59V53.48L69.3,54.51C69.48,54.62,69.69,54.68,69.87,54.68C70.08,54.68,70.29,54.62,70.43,54.51L71.75,53.51C71.9,53.39,72,53.24,72,53.07C72,52.93,71.9,52.76,71.75,52.65L67.98,49.77V46.73L71.44,48.26L72.82,52.17C72.93,52.45,73.24,52.63,73.59,52.63C73.65,52.63,73.72,52.61,73.77,52.61L75.6,52.23C75.95,52.16,76.17,51.92,76.17,51.66C76.17,51.61,76.17,51.55,76.15,51.51L75.65,50.11L78.07,51.15C78.18,51.21,78.35,51.24,78.46,51.24C78.74,51.24,79.01,51.13,79.15,50.95L80.07,49.7C80.16,49.62,80.18,49.51,80.18,49.4C80.18,49.2,80.02,48.99,79.79,48.89ZM73.54,15.69C71.95,6.9,62.09,0.12,50.11,0.02C50.07,0.01,49.97,0,49.85,0C39.3,0,30.4,5.19,27.2,12.38C21.4,13.43,16.68,16.52,14.43,20.63C6.39,20.96,0,26,0,32.21C0,35.78,2.14,38.99,5.52,41.11C5.54,41.1,5.54,41.07,5.54,41.06C4.94,40.67,4.6,40.09,4.6,39.48C4.6,39.12,4.72,38.75,4.98,38.41L5.89,37.22C6.37,36.57,7.29,36.17,8.27,36.17C8.6,36.17,8.88,36.2,9.18,36.27C9.54,35.81,10.14,35.45,10.85,35.3L12.54,34.95C12.78,34.91,13,34.87,13.24,34.87C13.34,34.73,13.45,34.62,13.61,34.51L14.91,33.51C15.39,33.13,16.11,32.89,16.85,32.89C17.12,31.94,18.24,31.22,19.56,31.21H21.44C22.75,31.22,23.88,31.94,24.14,32.89C24.84,32.89,25.56,33.12,26.08,33.51L27.39,34.51C27.5,34.6,27.59,34.68,27.69,34.77C27.74,34.77,27.79,34.77,27.84,34.77C28.07,34.77,28.3,34.8,28.56,34.85L30.33,35.22C31.1,35.36,31.7,35.73,32.03,36.23C32.25,36.19,32.48,36.17,32.7,36.17C33.7,36.17,34.6,36.56,35.11,37.21L36.02,38.43C36.27,38.77,36.39,39.12,36.39,39.49C36.39,40.02,36.13,40.56,35.63,40.95C35.88,41.27,36.02,41.64,36.02,42.03C36.02,42.21,35.99,42.38,35.94,42.56L35.51,43.81H51.43L51.05,42.71C50.96,42.51,50.94,42.31,50.94,42.11C50.94,41.73,51.06,41.38,51.3,41.06C50.69,40.67,50.36,40.09,50.36,39.48C50.36,39.13,50.48,38.78,50.73,38.43L51.65,37.22C52.13,36.58,53.06,36.17,54.06,36.17C54.35,36.17,54.67,36.2,54.94,36.27C55.29,35.81,55.87,35.45,56.62,35.3L58.32,34.95C58.53,34.91,58.75,34.87,58.99,34.87C59.08,34.74,59.23,34.62,59.36,34.51L60.68,33.53C61.15,33.13,61.87,32.9,62.62,32.89C62.88,31.94,64,31.22,65.32,31.22H67.18C68.54,31.22,69.66,31.94,69.88,32.89C70.63,32.9,71.31,33.12,71.83,33.51L73.15,34.51C73.27,34.6,73.37,34.68,73.46,34.77C73.5,34.77,73.54,34.77,73.59,34.77C73.85,34.77,74.08,34.81,74.31,34.85L76.12,35.22C76.83,35.36,77.47,35.74,77.82,36.23C78.02,36.19,78.23,36.18,78.47,36.18C79.45,36.18,80.38,36.57,80.85,37.21L81.79,38.43C82.04,38.78,82.18,39.13,82.18,39.49C82.18,40.05,81.88,40.56,81.38,40.95C81.55,41.13,81.65,41.34,81.7,41.53C86.81,39.04,90.18,34.68,90.18,29.7C90.17,22.4,82.87,16.39,73.54,15.69Z" filter="" style="fill: rgb(255, 255, 255); stroke: rgb(31, 31, 74); stroke-width: 0.43px;"/></g><!----></g><!----></g></g></g></g></g><!----></g><!----></g></g><g fill="#ffffff11" transform="translate(67.764, 67.764)"><text text-anchor="middle" style="font: 16.941px Arial;"> DRAWTIFY </text></g></g></svg>