<svg version="1.2" width="136" height="136" viewBox="0 0 136 136" xmlns="http://www.w3.org/2000/svg" xmlns:xlink="http://www.w3.org/1999/xlink"><defs><style/></defs><g><g id="wbEeLcOH" transform="matrix(1,0,0,1,0,0)"><defs><!----><!----><!----></defs><!----><!----><g><!----><g transform=""><!----><g id="wbEeLcOH_origin" transform="skewX(0) skewY(0)"><path id="shapepath_wbEeLcOH" d="M0,135.53V0H135.53V135.53Z" filter="" style="fill: rgba(255, 255, 255, 0); stroke: none;"/></g><!----></g><!----></g></g><g id="hrLwYsLl" transform="matrix(1,0,0,1,-0.5642318725585938,0)"><defs><!----><!----><!----></defs><defs><linearGradient x1="0" y1="0" x2="1" y2="1" id="hrLwYsLl_fill"><stop offset="0" stop-color="#B3E7E4FF"/><stop offset="1" stop-color="#81d7d2ff"/></linearGradient></defs><!----><g><!----><g transform=""><!----><g id="hrLwYsLl_origin" transform="skewX(0) skewY(0)"><path id="shapepath_hrLwYsLl" d="M0,67.76C0,30.34,30.34,0,67.76,0C105.19,0,135.53,30.34,135.53,67.76C135.53,105.19,105.19,135.53,67.76,135.53C30.34,135.53,0,105.19,0,67.76Z" filter="" style="fill: url(&quot;#hrLwYsLl_fill&quot;); stroke: none;"/></g><!----></g><!----></g></g><g id="Wda5pa1K" transform="matrix(1,0,0,1,6.1911094291534425,33.13312935401147)"><defs><!----><!----><!----></defs><!----><!----><g><!----><g transform=""><!----><g id="Wda5pa1K_origin" transform="skewX(0) skewY(0)"><path id="shapepath_Wda5pa1K" d="M4.37,69.62L0.97,71.89C0.38,72.29,0,72.84,0,73.44C0,74.03,0.38,74.6,0.97,75.02C1.59,75.45,2.48,75.67,3.37,75.67C4.28,75.67,5.14,75.45,5.73,75.02L9.17,72.77C9.77,72.34,10.13,71.78,10.13,71.16C10.13,70.62,9.77,70.03,9.17,69.62C7.81,68.74,5.7,68.74,4.37,69.62ZM25.48,69.62L22.08,71.89C21.46,72.29,21.09,72.84,21.09,73.44C21.09,74.03,21.46,74.6,22.08,75.02C22.72,75.45,23.58,75.67,24.46,75.67C25.36,75.67,26.21,75.45,26.86,75.02L30.25,72.77C30.88,72.34,31.23,71.78,31.23,71.16C31.23,70.62,30.88,70.03,30.25,69.62C28.91,68.74,26.81,68.74,25.48,69.62ZM76.69,69.62L73.29,71.89C72.67,72.29,72.29,72.84,72.29,73.44C72.29,74.03,72.67,74.6,73.29,75.02C73.91,75.45,74.76,75.67,75.67,75.67C76.56,75.67,77.45,75.45,78.05,75.02L81.45,72.77C82.07,72.34,82.44,71.78,82.44,71.16C82.44,70.62,82.07,70.03,81.45,69.62C80.11,68.74,77.99,68.74,76.69,69.62ZM23.98,59.44C23.34,59,22.5,58.75,21.62,58.75C20.74,58.75,19.9,59,19.24,59.44L15.85,61.66C15.21,62.08,14.89,62.65,14.89,63.26C14.89,63.84,15.21,64.41,15.85,64.84C16.5,65.24,17.36,65.47,18.26,65.47C19.13,65.45,20,65.24,20.64,64.84L24,62.57C25.31,61.68,25.29,60.3,23.98,59.44ZM91.51,59.44L88.14,61.66C87.47,62.08,87.16,62.65,87.16,63.26C87.16,63.84,87.47,64.41,88.14,64.84C88.76,65.24,89.63,65.47,90.54,65.47C91.43,65.45,92.27,65.24,92.91,64.84L96.3,62.57C96.94,62.15,97.27,61.59,97.27,60.97C97.27,60.41,96.94,59.84,96.3,59.44C94.98,58.56,92.87,58.56,91.51,59.44ZM69.49,60.91L54.46,78.85L56.5,66.77C56.61,66.15,56.33,65.47,55.69,65.03C55.02,64.56,54.13,64.29,53.16,64.29H40.16L43.96,52.54V52.49L46.9,42.24H61.77L59.24,51.62L56.99,58.19C56.75,58.85,56.99,59.55,57.61,60.06C58.25,60.62,59.22,60.91,60.26,60.94H69.49ZM108.71,45.86C104.92,48.43,99.71,49.84,94.29,49.84H66.53L69.09,40.39C69.26,39.72,68.98,39.07,68.35,38.55C67.73,38.05,66.76,37.76,65.74,37.76H44.13C42.53,37.76,41.12,38.5,40.83,39.54L37.87,49.81H27.63C19.36,49.81,11.9,46.52,8.75,41.42C5.58,36.34,7.33,30.49,13.17,26.61C14.11,26.01,15.1,25.44,16.2,24.96C17.6,24.34,18.07,23.13,17.35,22.16C16.08,20.42,15.45,18.54,15.46,16.63C15.49,9.53,24.08,3.78,34.7,3.78C37.67,3.78,40.58,4.25,43.21,5.09C44.4,5.5,45.83,5.41,46.81,4.83C56.42,-0.38,69.65,-1.47,80.87,2.03C92.05,5.57,99.19,13.05,99.19,21.32V21.4C99.19,22.34,100.06,23.15,101.38,23.5C109.35,25.51,114.67,30.57,114.68,36.26C114.72,39.83,112.6,43.29,108.71,45.86Z" filter="" style="fill: rgb(255, 255, 255); stroke: rgb(31, 31, 74); stroke-width: 0.5px;"/></g><!----></g><!----></g></g><g fill="#ffffff11" transform="translate(67.764, 67.764)"><text text-anchor="middle" style="font: 16.941px Arial;"> DRAWTIFY </text></g></g></svg>